<svg xmlns="http://www.w3.org/2000/svg" width="271.648" height="64.051" viewBox="0 0 271.648 64.051" fill="#ffffff">
  <g id="Group_9" data-name="Group 9" transform="translate(1101.564 -732.595)">
    <path id="Path_23" data-name="Path 23" d="M-1057.443,732.859l-29.17,63.081h-4.653l29.17-63.081" fill="#fff"/>
    <path id="Path_24" data-name="Path 24" d="M-1067.741,732.859l-29.17,63.081h-4.653l29.17-63.081" fill="#fff"/>
    <path id="Path_25" data-name="Path 25" d="M-1038.187,733.214h4.423l28.841,62.37h-5.043l-7.874-17.34h-36.537l-7.874,17.34h-4.778Z" fill="#fff"/>
    <path id="Path_26" data-name="Path 26" d="M-982.624,737.9h-21.587v-4.247h47.774V737.9h-21.587v57.682h-4.6Z" fill="#fff"/>
    <path id="Path_27" data-name="Path 27" d="M-950.062,764.8v-.178c0-16.9,12.473-32.025,31.23-32.025s31.052,14.951,31.052,31.849v.176c0,16.9-12.474,32.026-31.23,32.026S-950.062,781.7-950.062,764.8Z" fill="#fff"/>
    <path id="Path_28" data-name="Path 28" d="M-878.839,793.019l42.377-55.2h-40.873v-4.158h47.419v2.565l-42.377,55.2h42.377v4.158h-48.923Z" fill="#fff"/>
  </g>
</svg>
