<svg xmlns="http://www.w3.org/2000/svg" viewBox="0 0 109.28 25.77" fill="currentColor">
    <g data-name="ATOZ-logo">
        <g data-name="ATOZ-logo2">
            <path d="M17.75.11L6 25.48H4.14L15.88.11M13.61.11L1.87 25.48H0L11.73.11M25.5.25h1.77l11.61 25.09h-2.03l-3.17-6.98h-14.7l-3.17 6.98h-1.92L25.5.25zM47.85 2.13h-8.69V.43h19.22v1.7H49.7v23.21h-1.85V2.13zM61 13v-.07C61 6.09 66 0 73.51 0S86 6 86 12.81v.07c0 6.8-5 12.89-12.56 12.89S61 19.75 61 13zM89.6 24.31L106.64 2.1H90.2V.43h19.08v1.03L92.23 23.67h17.05v1.67H89.6v-1.03z"/>
        </g>
    </g>
</svg>
