<svg xmlns="http://www.w3.org/2000/svg" viewBox="0 0 1159.96 492.19">
  <g data-name="Hello">
    <g data-name="Yellow">
      <path fill="#f2fa00" opacity=".76" d="M409.82 492.19l750.14-455.66L902.48 0 768.34 148.63l-511.76 91.29 153.24 252.27z"/>
      <path d="M0 264.36h2.66v46.49A26.21 26.21 0 0128.12 292c17.1 0 26.61 11.5 26.61 29v35.85h-2.66v-35.6c0-15.83-8.24-26.73-24.2-26.73-14.06 0-25.21 12-25.21 27.24v35.09H0zM69.42 325.16v-.25c0-18.75 12.8-32.91 30.4-32.91 20 0 29.13 17.61 29.13 33.44v.51H72.33c.51 18.24 13.3 29.9 28.88 29.9 9.76 0 18.37-5.7 23.44-12.8l2.15 1.52a31.3 31.3 0 01-25.71 13.81c-17.36-.03-31.67-12.82-31.67-33.22zm56.62-1.65c-.51-14.44-9.63-29-26.35-29-15.71 0-26.73 12.42-27.36 29zM145.29 264.36h2.66v92.47h-2.66zM169.87 264.36h2.66v92.47h-2.66zM189.12 325.41v-.25c0-17.73 13-33.19 32.94-33.19s32.93 15.2 32.93 32.94v.25c0 17.74-13 33.19-32.93 33.19s-32.94-15.2-32.94-32.94zm63.09-.12V325c0-16.59-12.55-30.53-30.28-30.53s-30 13.94-30 30.53v.26c0 16.59 12.54 30.53 30.27 30.53s30.02-13.91 30.02-30.5zM311.22 277h2.3l-47 92.6h-2.3zM324.31 277h2.3l-47 92.6h-2.3zM414.22 354c-1.26-1.26-2.73-2.52-4.41-3.89-7.88-6.19-19.11-12.6-27.4-15.54.1 2.21.21 4.73.21 6.41 0 11.44-6.72 16.59-18.48 16.59-12.6 0-20.06-5.78-20.06-13.23 0-7.67 8-14.28 23.52-14.28a47.39 47.39 0 0112.5 1.57c-.21-5.46-.42-12.07-.63-19-3.89.21-7.77.31-11.55.31-5.25 0-10.61-.1-15.75-.31-2.63-.11-5.46-.42-7.88-.42l.11-2.73a67.8 67.8 0 007.87.84c5.15.31 10.29.42 15.65.42 3.67 0 7.56-.11 11.44-.32-.1-6.09-.21-12.28-.31-17.85-4.1.11-8.4.21-12.92.21-5.14 0-11.34-.1-16.48-.52-2.63-.21-5.88-.42-7.88-.53l.11-2.73c2.31.42 5.35.74 7.87.95 5.15.42 11.34.63 16.38.63 4.52 0 8.82-.11 12.92-.21v-8.09a59.35 59.35 0 00-.32-8.4h2.94a61.25 61.25 0 00-.31 8.4v8a225.13 225.13 0 0024.14-2.2 80.18 80.18 0 008-1.68l.21 2.73c-2 .21-4.72.63-8.08 1.15a224.73 224.73 0 01-24.25 2.21c0 5.56.1 11.76.21 17.85 8-.42 16.06-1.26 23-2.31a70.33 70.33 0 007.56-1.58l.31 2.73c-2 .21-4.3.53-7.66 1-7 1.05-15 1.89-23.1 2.31.21 7.25.42 14.18.74 19.74 8.71 2.94 20.78 9.87 28.76 16 2 1.58 3.47 2.63 4.52 3.36zm-33.92-13.23c0-2.21-.1-4.62-.2-6.93a50.2 50.2 0 00-12.29-1.58c-14.38 0-21.42 5.88-21.42 12.08s6.3 11 17.75 11c10.64.02 16.2-3.97 16.2-14.57zM439.04 295.09c0 25.2 3.89 40.43 8.51 48 3.15 5.14 5.77 6.4 7.35 6.4s3.57-1.05 6.51-6.19c2.2-3.89 4.62-10.71 6.19-17.85a5.14 5.14 0 002 1.68c-1.68 6.51-4.1 13.33-6.3 17.22-3.47 6.09-5.78 7.35-8.4 7.35s-5.57-1.47-9.35-7.46c-5-8-8.82-23.31-8.82-49.35v-3.36a70.48 70.48 0 00-.31-7.87h2.94a69.9 69.9 0 00-.32 7.87zm73.6 45.91a103.37 103.37 0 00-6.61-24.05 90.69 90.69 0 00-15.81-25.85l2.1-1.15a97.36 97.36 0 0115.86 26.14 110 110 0 016.77 23.91zM596.54 353.37c-1.47.1-3.57.31-6.4.63a211.92 211.92 0 01-22.92 1.26c-27 0-34.44-6.93-34.44-17.85 0-9.35 7.35-17.75 23.31-25.1a279.83 279.83 0 01-7.77-29.61 67.36 67.36 0 00-1.89-7.56l2.83-.52c.32 2.62.84 5 1.37 7.66a240.56 240.56 0 007.59 29.09c7.87-3.47 18.48-7.35 27.19-10.19a62.75 62.75 0 007.35-2.73l1.05 2.52c-2.1.53-4.3 1.16-7.87 2.31-8.93 2.94-19.85 6.93-27.93 10.61-15.33 6.93-22.89 14.49-22.89 23.52 0 9.24 6.19 15.64 32.13 15.64a183.08 183.08 0 0022.57-1.36 57 57 0 006.3-1.05zm-1.89-63.95a73.56 73.56 0 00-9.66-15.22l1.89-.95a81.08 81.08 0 019.66 15.12zm11.34-6a79.64 79.64 0 00-10.08-14.81l1.89-.94a88.14 88.14 0 0110.08 14.7z"/>
    </g>
  </g>
</svg>